<svg width="68" height="60" viewBox="0 0 68 60" fill="none" xmlns="http://www.w3.org/2000/svg">
<path d="M17 32.5009H4.85714C4.21305 32.5009 3.59533 32.2375 3.13988 31.7686C2.68444 31.2998 2.42857 30.6639 2.42857 30.0008C2.42857 29.3378 2.68444 28.7019 3.13988 28.233C3.59533 27.7642 4.21305 27.5008 4.85714 27.5008H15.7007L19.8354 21.1131C20.057 20.7702 20.3576 20.4889 20.7103 20.2944C21.0631 20.0999 21.457 19.9981 21.8571 19.9981C22.2573 19.9981 22.6512 20.0999 23.004 20.2944C23.3567 20.4889 23.6572 20.7702 23.8789 21.1131L31.5714 32.9884L34.4068 28.6133C34.6287 28.2708 34.9294 27.9901 35.2821 27.796C35.6348 27.6019 36.0286 27.5005 36.4286 27.5008H43.7143C44.3584 27.5008 44.9761 27.7642 45.4315 28.233C45.887 28.7019 46.1429 29.3378 46.1429 30.0008C46.1429 30.6639 45.887 31.2998 45.4315 31.7686C44.9761 32.2375 44.3584 32.5009 43.7143 32.5009H37.7279L33.5932 38.8886C33.3715 39.2315 33.071 39.5127 32.7182 39.7072C32.3655 39.9018 31.9716 40.0035 31.5714 40.0035C31.1713 40.0035 30.7773 39.9018 30.4246 39.7072C30.0719 39.5127 29.7713 39.2315 29.5496 38.8886L21.8571 27.007L19.0218 31.3821C18.8005 31.7257 18.5001 32.0077 18.1474 32.2029C17.7946 32.3981 17.4005 32.5005 17 32.5009ZM49.1786 0C42.9098 0 37.4212 2.77508 34 7.46583C30.5788 2.77508 25.0902 0 18.8214 0C13.8314 0.00578996 9.04737 2.04899 5.51888 5.68136C1.9904 9.31372 0.00562438 14.2386 0 19.3755C0 19.6099 0 19.8443 0 20.0787C0.020128 20.7417 0.295298 21.3694 0.764976 21.8236C1.23465 22.2778 1.86037 22.5213 2.50446 22.5006C3.14856 22.4799 3.75828 22.1966 4.1995 21.7131C4.64071 21.2296 4.87727 20.5855 4.85714 19.9224C4.85714 19.7412 4.85714 19.5568 4.85714 19.3755C4.86196 15.5645 6.33474 11.9109 8.95251 9.21607C11.5703 6.52124 15.1193 5.0051 18.8214 5.00014C24.7259 5.00014 29.6832 8.23773 31.7536 13.4379C31.9365 13.8964 32.2478 14.2886 32.6478 14.5646C33.0478 14.8406 33.5185 14.988 34 14.988C34.4815 14.988 34.9522 14.8406 35.3522 14.5646C35.7522 14.2886 36.0635 13.8964 36.2464 13.4379C38.3168 8.22835 43.2741 5.00014 49.1786 5.00014C52.8806 5.0051 56.4297 6.52124 59.0475 9.21607C61.6653 11.9109 63.138 15.5645 63.1429 19.3755C63.1429 36.1291 39.5371 51.2983 34 54.6265C30.7123 52.6546 21.0588 46.5013 13.7579 38.3104C13.5422 38.0683 13.2823 37.8723 12.993 37.7335C12.7038 37.5948 12.3908 37.5161 12.072 37.5019C11.7531 37.4876 11.4347 37.5382 11.1349 37.6507C10.8351 37.7631 10.5597 37.9353 10.3245 38.1573C10.0893 38.3793 9.89883 38.6469 9.76406 38.9446C9.6293 39.2424 9.55282 39.5646 9.53901 39.8928C9.5252 40.221 9.57432 40.5488 9.68356 40.8575C9.79281 41.1661 9.96004 41.4496 10.1757 41.6918C19.638 52.3171 32.3152 59.4048 32.8495 59.7016C33.2031 59.8975 33.5984 60 34 60C34.4016 60 34.7969 59.8975 35.1505 59.7016C36.4923 58.9579 68 41.2511 68 19.3755C67.9944 14.2386 66.0096 9.31372 62.4811 5.68136C58.9526 2.04899 54.1686 0.00578996 49.1786 0Z" fill="#F0F6F4"/>
</svg>
