<svg xmlns="http://www.w3.org/2000/svg" width="23" height="23" fill="none" viewBox="0 0 23 23">
  <circle cx="11.28" cy="11.28" r="11.28" fill="#406E69"/>
  <path fill="#F0F6F4" d="M10.704 13.166v-.552c0-.35.05-.643.15-.877.1-.242.23-.447.39-.614a3.67 3.67 0 0 1 .5-.464c.184-.134.356-.263.514-.389a1.8 1.8 0 0 0 .389-.45c.1-.168.15-.368.15-.602 0-.376-.13-.66-.388-.853-.25-.2-.602-.3-1.053-.3-.51 0-.898.133-1.166.4-.267.26-.4.631-.4 1.116H8.56c.008-.568.13-1.049.363-1.441.243-.401.573-.706.99-.915a3.26 3.26 0 0 1 1.454-.314c.493 0 .936.08 1.329.239.401.158.719.409.953.752.242.342.363.79.363 1.34 0 .36-.054.665-.163.916-.1.242-.23.45-.389.626-.158.167-.33.314-.513.439a11.71 11.71 0 0 0-.514.388 1.933 1.933 0 0 0-.401.464c-.1.167-.15.38-.15.64v.45h-1.179Zm-.15 2.594v-1.58h1.529v1.58h-1.53Z"/>
</svg>
