<svg xmlns="http://www.w3.org/2000/svg" width="24" height="24" fill="none" viewBox="0 0 24 24">
  <path fill="#406E69" d="M10.998 15.995v-1.389a1.485 1.485 0 0 1-.5-1.11c0-.83.672-1.496 1.502-1.496s1.497.672 1.497 1.496c0 .444-.197.838-.501 1.11v1.389c0 .552-.45 1.002-1.002 1.002-.545 0-.996-.45-.996-1.002ZM8.018 5.887c.064-.951.863-1.737 1.852-1.807 1.42-.102 2.84-.102 4.26 0 1.085.076 1.782.73 1.852 1.807a9.77 9.77 0 0 1-.114 2.232A60.145 60.145 0 0 0 12.02 8c-1.293 0-2.58.038-3.874.12a9.452 9.452 0 0 1-.127-2.232ZM9.73 2.082c-1.972.14-3.576 1.713-3.703 3.678a11.16 11.16 0 0 0 .114 2.518c-.101.006-.209.019-.31.031-1.827.184-3.279 1.586-3.564 3.4a21.258 21.258 0 0 0-.013 6.588 4.032 4.032 0 0 0 3.57 3.392 63.87 63.87 0 0 0 5.923.311h.526a60.927 60.927 0 0 0 5.884-.304 4.045 4.045 0 0 0 3.583-3.355c.367-2.2.317-4.394-.007-6.588-.266-1.827-1.661-3.247-3.506-3.437l-.368-.038c.127-.837.165-1.674.114-2.518-.133-2.111-1.655-3.532-3.703-3.678A30.288 30.288 0 0 0 12 2c-.754 0-1.515.025-2.27.082Z"/>
</svg>
