<svg width="24" height="24" viewBox="0 0 24 24" fill="none" xmlns="http://www.w3.org/2000/svg">
<path fill-rule="evenodd" clip-rule="evenodd" d="M13 20C13 19.4477 12.5523 19 12 19L8.8 19C7.94342 19 7.36113 18.9992 6.91104 18.9624C6.47262 18.9266 6.24842 18.8617 6.09202 18.782C5.71569 18.5903 5.40973 18.2843 5.21799 17.908C5.1383 17.7516 5.07337 17.5274 5.03755 17.089C5.00078 16.6389 5 16.0566 5 15.2L5 8.8C5 7.94342 5.00078 7.36113 5.03755 6.91104C5.07337 6.47262 5.1383 6.24842 5.21799 6.09202C5.40973 5.71569 5.71569 5.40973 6.09202 5.21799C6.24842 5.1383 6.47262 5.07337 6.91104 5.03755C7.36113 5.00078 7.94342 5 8.8 5L12 5C12.5523 5 13 4.55228 13 4C13 3.44772 12.5523 3 12 3L8.75868 3C7.95372 2.99999 7.28936 2.99998 6.74817 3.04419C6.18608 3.09012 5.66937 3.18868 5.18404 3.43597C4.43139 3.81947 3.81947 4.43139 3.43597 5.18404C3.18868 5.66937 3.09012 6.18608 3.04419 6.74817C2.99998 7.28937 2.99999 7.95374 3 8.75872V15.2413C2.99999 16.0463 2.99998 16.7106 3.04419 17.2518C3.09012 17.8139 3.18868 18.3306 3.43597 18.816C3.81947 19.5686 4.43139 20.1805 5.18404 20.564C5.66937 20.8113 6.18608 20.9099 6.74817 20.9558C7.28937 21 7.95373 21 8.7587 21H12C12.5523 21 13 20.5523 13 20Z" fill="#406E69"/>
<path d="M20 13C20.5523 13 21 12.5523 21 12C21 11.4477 20.5523 11 20 11H11.4142L12.7071 9.70711C13.0976 9.31658 13.0976 8.68342 12.7071 8.29289C12.3166 7.90237 11.6834 7.90237 11.2929 8.29289L8.29289 11.2929C7.90237 11.6834 7.90237 12.3166 8.29289 12.7071L11.2929 15.7071C11.6834 16.0976 12.3166 16.0976 12.7071 15.7071C13.0976 15.3166 13.0976 14.6834 12.7071 14.2929L11.4142 13H20Z" fill="#406E69"/>
</svg>
