<svg width="82" height="68" viewBox="0 0 82 68" fill="none" xmlns="http://www.w3.org/2000/svg">
<path d="M82 35.1436C82 35.9203 81.6915 36.6652 81.1422 37.2144C80.593 37.7637 79.8481 38.0722 79.0714 38.0722H69.1655L55.3354 65.7399C55.0919 66.2264 54.7177 66.6355 54.2547 66.9213C53.7918 67.2071 53.2584 67.3583 52.7143 67.3579H52.5679C51.9998 67.3298 51.4522 67.1369 50.992 66.8028C50.5317 66.4687 50.1787 66.0077 49.9761 65.4763L29.0478 10.529L17.3079 36.3553C17.0753 36.8671 16.7003 37.3011 16.2278 37.6055C15.7552 37.91 15.205 38.072 14.6429 38.0722H2.92857C2.15187 38.0722 1.40697 37.7637 0.857759 37.2144C0.308545 36.6652 0 35.9203 0 35.1436C0 34.3669 0.308545 33.622 0.857759 33.0728C1.40697 32.5236 2.15187 32.215 2.92857 32.215H12.7576L26.6207 1.71764C26.8597 1.19136 27.2491 0.747575 27.7398 0.442174C28.2306 0.136773 28.8007 -0.0165833 29.3784 0.00142166C29.9562 0.0194266 30.5156 0.207987 30.9864 0.543354C31.4572 0.87872 31.8182 1.3459 32.0239 1.88604L53.0767 57.1628L64.7361 33.8404C64.9785 33.3525 65.3523 32.9419 65.8153 32.6547C66.2784 32.3676 66.8123 32.2153 67.3571 32.215H79.0714C79.8481 32.215 80.593 32.5236 81.1422 33.0728C81.6915 33.622 82 34.3669 82 35.1436Z" fill="#F0F6F4"/>
</svg>
