<svg width="98" height="69" viewBox="0 0 98 69" fill="none" xmlns="http://www.w3.org/2000/svg">
<path d="M55.1665 68.5V0.734222M55.9901 46.6903C60.4618 43.4608 69.212 36.2855 69.9595 32.3967M70.0106 31.8909C70.0106 32.0524 69.9932 32.2212 69.9595 32.3967M81.6944 37.3433C78.014 36.9753 73.1164 35.5291 69.9595 32.3967M69.9595 32.3967C66.435 28.8997 62.5545 21.2167 70.0106 14.7547C81.6944 4.62881 96.4447 17.0915 94.8869 37.3433C92.9083 63.0646 55.1665 56.0373 69.9595 32.3967Z" stroke="#F0F6F4" stroke-width="4.13837"/>
<path d="M42.8342 68.5V0.734222M42.0106 46.6903C37.5389 43.4608 28.7887 36.2855 28.0413 32.3967M27.9901 31.8909C27.9901 32.0524 28.0075 32.2212 28.0413 32.3967M16.3064 37.3433C19.9867 36.9753 24.8843 35.5291 28.0413 32.3967M28.0413 32.3967C31.5658 28.8997 35.4462 21.2167 27.9901 14.7547C16.3064 4.62881 1.55604 17.0915 3.11387 37.3433C5.09243 63.0646 42.8342 56.0373 28.0413 32.3967Z" stroke="#F0F6F4" stroke-width="4.13837"/>
</svg>
