<svg width="38" height="38" viewBox="0 0 38 38" fill="none" xmlns="http://www.w3.org/2000/svg">
<path d="M32.8867 23.3846C32.8867 23.8182 32.7582 24.2421 32.5172 24.6026C32.2763 24.9631 31.9339 25.2441 31.5333 25.41C31.1327 25.576 30.6919 25.6194 30.2666 25.5348C29.8413 25.4502 29.4506 25.2414 29.144 24.9348C28.8374 24.6282 28.6286 24.2376 28.544 23.8123C28.4594 23.387 28.5028 22.9462 28.6687 22.5457C28.8347 22.1451 29.1157 21.8027 29.4762 21.5618C29.8368 21.3209 30.2607 21.1923 30.6943 21.1923C31.2758 21.1923 31.8334 21.4233 32.2446 21.8344C32.6557 22.2456 32.8867 22.8032 32.8867 23.3846ZM32.0554 30.5626C31.7344 32.6322 30.6844 34.519 29.0948 35.8827C27.5052 37.2464 25.4806 37.9973 23.3861 38H19.0012C16.6761 37.9976 14.4468 37.0729 12.8027 35.4289C11.1586 33.7849 10.2338 31.5558 10.2314 29.2308V21.8299C7.40596 21.474 4.80753 20.0992 2.92375 17.9636C1.03997 15.828 0.000357378 13.0784 0 10.2308V1.46154C0 1.07391 0.153993 0.702167 0.428103 0.428075C0.702212 0.153983 1.07398 0 1.46163 0H5.84653C6.23418 0 6.60595 0.153983 6.88006 0.428075C7.15417 0.702167 7.30816 1.07391 7.30816 1.46154C7.30816 1.84916 7.15417 2.22091 6.88006 2.495C6.60595 2.76909 6.23418 2.92308 5.84653 2.92308H2.92327V10.2308C2.92316 11.3923 3.15382 12.5422 3.60183 13.6138C4.04985 14.6855 4.70631 15.6574 5.53308 16.4733C6.35986 17.2891 7.34048 17.9326 8.41802 18.3663C9.49555 18.8001 10.6485 19.0155 11.81 19C16.5804 18.9379 20.4629 14.9351 20.4629 10.0791V2.92308H17.5396C17.1519 2.92308 16.7802 2.76909 16.5061 2.495C16.232 2.22091 16.078 1.84916 16.078 1.46154C16.078 1.07391 16.232 0.702167 16.5061 0.428075C16.7802 0.153983 17.1519 0 17.5396 0H21.9245C22.3121 0 22.6839 0.153983 22.958 0.428075C23.2321 0.702167 23.3861 1.07391 23.3861 1.46154V10.0791C23.3861 16.0787 18.9044 21.0937 13.1547 21.8281V29.2308C13.1547 30.7813 13.7707 32.2683 14.8671 33.3646C15.9635 34.461 17.4506 35.0769 19.0012 35.0769H23.3861C24.7138 35.0747 26.0014 34.6216 27.0377 33.7917C28.0741 32.9619 28.7978 31.8046 29.0901 30.5096C27.3249 30.1131 25.7695 29.076 24.7249 27.5989C23.6803 26.1219 23.2207 24.3098 23.4352 22.5135C23.6496 20.7172 24.5227 19.0642 25.8857 17.8745C27.2486 16.6847 29.0044 16.0428 30.8134 16.0729C32.6223 16.103 34.3558 16.803 35.6784 18.0374C37.001 19.2718 37.8187 20.9529 37.9733 22.7553C38.1278 24.5578 37.6082 26.3536 36.5151 27.7951C35.4219 29.2366 33.8329 30.2214 32.0554 30.5589V30.5626ZM35.0792 23.3846C35.0792 22.5174 34.822 21.6697 34.3402 20.9487C33.8584 20.2276 33.1735 19.6656 32.3723 19.3338C31.5711 19.0019 30.6894 18.9151 29.8388 19.0842C28.9882 19.2534 28.2069 19.671 27.5937 20.2842C26.9805 20.8974 26.5628 21.6787 26.3936 22.5292C26.2245 23.3797 26.3113 24.2614 26.6432 25.0625C26.9751 25.8637 27.5371 26.5485 28.2582 27.0303C28.9793 27.5121 29.827 27.7692 30.6943 27.7692C31.8572 27.7692 32.9725 27.3073 33.7949 26.485C34.6172 25.6627 35.0792 24.5475 35.0792 23.3846Z" fill="#003E37"/>
</svg>
