<svg width="24" height="24" viewBox="0 0 24 24" fill="none" xmlns="http://www.w3.org/2000/svg">
<path fill-rule="evenodd" clip-rule="evenodd" d="M10.2325 4.20149C10.9837 2.78253 13.0164 2.78252 13.7676 4.20149L21.1067 18.0642C21.8119 19.3962 20.8463 21 19.3391 21H4.66095C3.1538 21 2.18819 19.3962 2.89337 18.0642L10.2325 4.20149ZM19.3391 19L12 5.13727L4.66094 19L19.3391 19Z" fill="#406E69"/>
<path d="M11 10C11 9.44772 11.4478 9 12 9C12.5523 9 13 9.44772 13 10V14C13 14.5523 12.5523 15 12 15C11.4478 15 11 14.5523 11 14V10Z" fill="#406E69"/>
<path d="M13 17C13 17.5523 12.5523 18 12 18C11.4478 18 11 17.5523 11 17C11 16.4477 11.4478 16 12 16C12.5523 16 13 16.4477 13 17Z" fill="#406E69"/>
</svg>
